<svg width="52" height="52" fill="none" xmlns="http://www.w3.org/2000/svg" >
    <path
      d="M50.8 28.273C47.47 44.43 40.814 48.439 26.499 51c-10.036-1.406-15.165-3.048-21.116-11.462-3.278-4.404-3.927-7.594-4.183-13.834 1.403-10.497 3.83-15.245 12.152-20.95m21.172 13.74c.13.131.265.184.549.21a.436.436 0 0 0 .282-.08l.16-.109a.467.467 0 0 0 .175-.222l.128-.343a.463.463 0 0 1 .135-.192l.25-.212a.387.387 0 0 1 .359-.08l.064.02c.023.007.05.007.074 0l.028-.008a.084.084 0 0 1 .086.025c.02.024.025.059.011.089l-.017.038a.154.154 0 0 0-.014.048l-.028.25a.456.456 0 0 1-.16.294l-.16.136a.47.47 0 0 1-.18.095l-.037.01a.47.47 0 0 0-.18.095l-.287.244a.469.469 0 0 0-.093.107l-.204.32a.234.234 0 0 0-.037.127l.008.838c0 .024.008.048.024.066l.006.006c.023.027.06.038.096.028.037-.01.074 0 .097.028l.045.051c.068.08.06.201-.018.281l-.12.123a.41.41 0 0 0-.119.312l.03.464-.143.258-.017.15-.229.33-.177.557-.047.126a.385.385 0 0 1-.238.229.381.381 0 0 0-.256.3l-.11.726c-.006.039 0 .078.017.113a.208.208 0 0 1-.06.246l-.007.007a.242.242 0 0 1-.078.044l-.134.045a.974.974 0 0 0-.384.24l-1.045 1.061c.129.472-.085.715.095 1.177a.115.115 0 0 1-.033.128l-.062.053c-.047.04-.115.036-.152-.007l-.081-.094a.1.1 0 0 1-.023-.056c-.028-.298-.084-.46-.378-.664-.59.155-.802.341-1.326.921.021.495.117.986.286 1.182.17.196.524.971-.085 1.43-.747-.362-.633-1.105-.497-2.361l-1.462.085c-1.191.79-1.315 1.438-1.26 2.696l.068.078c6.68 5.807 17.6-7.314 11.14-13.375-1.262-1.387-2.111-1.872-4.233-1.244a.343.343 0 0 0-.166.11c-.604.735-.635 1.153-.382 1.861m-.943 10.366c.048.295.166.478.156.702a.57.57 0 0 0 .032.254.36.36 0 0 1-.11.437.396.396 0 0 1-.544-.026c-.15-.155-.314-.342-.328-.423a2.612 2.612 0 0 1-.023-.514c.021-.39.5-.642.817-.43zm0 0c.022-.277.318-.431.57-.323.093.04.184.086.295.134.14.061.274.14.376.252.141.156.214.272.221.401.013.233-.235.44-.474.461-.198.017-.354-.104-.478-.248l-.45-.524m4.225-3.92a2.12 2.12 0 0 1-.463-.072.81.81 0 0 1-.414-.26c-.184-.218-.315-.42-.531-.701a.122.122 0 0 1 .022-.167.132.132 0 0 1 .08-.032c.345-.015.569-.011.795.05.146.04.266.133.362.245l.222.257c.162.19.182.484-.03.644m-.48-3.868l.202.236c.545.338.798.438 1.073.312l.33-.211-.372-.432c-.303-.129-.493-.18-.938-.155l-.295.25zm0 0l-.043.036m.525-1.937l.236.274c.4.187.578.227.82.188l.063-.053c.058-.05.068-.134.021-.188l-.012-.015c-.04-.046-.032-.117.018-.16a.12.12 0 0 0 .042-.077l.012-.104-.195.03c-.422-.084-.646-.043-1.039.066m-7.04 6.847l.042-.036c.023-.02.027-.053.009-.075-.02-.021-.015-.055.008-.075l.169-.143c.07-.06.172-.055.228.01.019.022.015.056-.008.076-.024.02-.027.053-.009.075.019.021.015.055-.008.075l-.127.107c-.047.04-.115.037-.152-.007l-.034-.04m3.535-7.608l.574.667m-5.684-3.745c-.179-.034-.295-.103-.472-.282a.315.315 0 0 1-.093-.222v-.153c.001-.076.03-.15.084-.208l.208-.226a.31.31 0 0 0 .081-.17l.034-.255a.289.289 0 0 0-.133-.273l-.05-.035a.115.115 0 0 1-.042-.05l-.01-.021a.084.084 0 0 0-.067-.048.085.085 0 0 0-.078.029l-.021.027a.13.13 0 0 1-.032.029l-.186.121a.325.325 0 0 0-.15.228l-.022.164a.307.307 0 0 0 .022.16l.012.028c.022.051.03.106.022.16l-.039.293a.302.302 0 0 1-.035.106l-.148.268a.188.188 0 0 1-.082.077l-.682.338a.117.117 0 0 1-.067.011l-.008-.001a.094.094 0 0 1-.076-.054.094.094 0 0 0-.076-.054l-.066-.008c-.102-.013-.197.041-.218.127l-.033.13a.316.316 0 0 1-.187.209l-.393.17-.13.202-.112.073-.14.288-.354.348-.077.083a.249.249 0 0 0-.054.254.254.254 0 0 1-.102.295l-.527.37a.204.204 0 0 1-.1.036c-.089.007-.158.065-.168.14l-.001.009a.155.155 0 0 0 .007.07l.038.108c.04.117.046.24.017.357l-.284 1.136c-.453.108-.531.35-1.005.42-.045.006-.08.035-.085.074l-.009.063c-.006.048.034.092.09.1l.12.015c.02.003.04 0 .058-.007.257-.104.418-.133.745-.02.2.46.167.68-.014 1.269-.413.188-.863.325-1.115.292-.252-.033-1.075.047-1.11.643.704.354 1.243-.027 2.185-.634l.737 1.016c.015 1.125-.441 1.473-1.49 1.952l-.1-.014c-8.383-2.102-3.775-14.813 4.692-12.962 1.82.278 2.68.65 3.34 2.331.02.051.022.107.003.157-.263.706-.584.899-1.297 1.02m-7.874 4.883c-.266.089-.479.085-.654.183a.597.597 0 0 1-.224.083c-.145.016-.267.102-.289.226a.793.793 0 0 0-.004.027c-.025.168.124.32.32.354.208.037.45.071.524.048.067-.022.25-.094.429-.197.303-.173.244-.598-.102-.724zm0 0c.212-.128.174-.39-.053-.515-.083-.046-.17-.088-.27-.143a1.272 1.272 0 0 0-.412-.149c-.204-.03-.338-.032-.447.016-.196.087-.227.339-.112.507.096.14.279.195.464.22l.673.087m.846-4.444a2 2 0 0 0 .314.282.934.934 0 0 0 .438.171c.278.034.514.04.86.069.062.005.117-.032.124-.084a.09.09 0 0 0-.018-.066c-.178-.238-.305-.387-.479-.513a.867.867 0 0 0-.398-.143l-.33-.043c-.243-.032-.492.076-.505.284m3.396-1.264l-.302-.04c-.574-.226-.795-.355-.844-.591l-.01-.308.554.072c.271.15.417.257.642.566l-.04.301zm0 0l-.005.043m1.28-1.147l-.353-.046c-.371-.191-.502-.295-.604-.473l.009-.064c.008-.06.07-.1.14-.091l.019.002c.059.008.112-.027.119-.077a.086.086 0 0 1 .04-.06l.077-.05.084.141c.3.25.39.416.519.725m-1.666 7.534l.005-.043c.003-.024.029-.04.056-.037.028.004.053-.012.057-.036l.022-.172c.01-.072-.05-.138-.134-.15-.027-.003-.053.013-.056.037-.003.024-.028.04-.056.037-.028-.004-.053.012-.056.036l-.017.13c-.006.047.034.091.09.098l.05.007m4.214-5.493l-.857-.112M51 25.506c0 12.988-9.528 22.925-22.51 22.925-12.982 0-24.701-10.53-24.701-23.518C2.479 11.139 12.889.54 27.295 1.395 40.277 1.395 51 12.517 51 25.505zm-2.191-2.174c0 10.806-8.919 19.565-19.92 19.565-11.002 0-19.522-8.76-19.522-19.565-.342-11.299 8.261-19.939 19.521-19.565 11.002 0 19.92 8.76 19.92 19.565zm1.992 2.57c0 13.752-11.148 24.9-24.9 24.9C12.147 50.802 1 39.654 1 25.902 1 12.148 12.148 1 25.9 1c13.753 0 24.9 11.149 24.9 24.901zm-2.988-2.372c0 8.731-7.89 16.008-17.132 16.008-9.241 0-18.127-10.043-18.127-18.775s7.491-15.81 16.733-15.81c9.241 0 18.526 9.845 18.526 18.577zm-1.793 1.172c0 8.283-7.955 14.243-16.569 14.243-8.614 0-16.897-9.527-16.897-17.81 0-8.282 6.923-14.601 15.538-14.601 9.123-.366 18.428 9.526 17.928 18.169zm-10.998.28c.014.034.043.067.065.096a.102.102 0 0 0 .075.044c.017 0 .032.006.045.017l.197.16a.113.113 0 0 0 .067.025c.024.001.048.01.066.025l.181.148c.024.019.05.034.078.045l.013.005a.23.23 0 0 1 .092.064l.052.062a.113.113 0 0 0 .116.033.116.116 0 0 1 .088.01l.063.035a.116.116 0 0 0 .088.01l.03-.008c.025-.006.05 0 .066.02.023.026.065.028.094.003l.078-.065a.178.178 0 0 0 .054-.081l.026-.08a.106.106 0 0 0-.02-.103l-.005-.006a.085.085 0 0 1-.02-.065.085.085 0 0 0-.02-.066l-.15-.175a.1.1 0 0 0-.072-.034.101.101 0 0 1-.057-.02l-.103-.079a.512.512 0 0 0-.187-.089l-.082-.02-.301-.117a.202.202 0 0 0-.147.004l-.038.015a.38.38 0 0 1-.165.03h-.019a.317.317 0 0 0-.097.01l-.021.007a.23.23 0 0 0-.087.046c-.03.025-.056.06-.043.095zm3.732-3.356l-.312-.278a2.264 2.264 0 0 0-.786.19.855.855 0 0 1-.236-.274s-.203.104-.127.107c.076.004.338.393.338.393.241.144.384.204.658.256.217-.146.318-.232.465-.394zm-2.051-2.469l.168.197c.332.133.51.169.82.187.136-.09.188-.137.253-.214l-.135-.157-.16.068a2.004 2.004 0 0 0-.422-.32 1.35 1.35 0 0 1-.28.1l-.075-.004-.17.143zm-5.916 4.674l.067.078c.056.065.158.07.228.01.07-.059.082-.16.026-.224l-.068-.079c-.018-.022-.052-.023-.076-.003-.023.02-.057.018-.076-.004-.019-.021-.053-.023-.076-.003s-.027.053-.008.075c.018.021.015.055-.009.075-.023.02-.027.053-.008.075zm1.808-1.125l.068.078c.018.022.052.023.076.004.023-.02.027-.054.008-.075-.019-.022-.015-.056.009-.076l.127-.107c.046-.04.054-.107.016-.15-.037-.043-.105-.046-.152-.007l-.126.108c-.07.059-.082.16-.026.225zm1.372-1.095l.014-.012a.066.066 0 0 1 .083-.004l.016.013c.08.062-.006.191-.1.149a.081.081 0 0 1-.027-.021c-.031-.036-.025-.092.014-.125zm-.544-.76l-.04.033c-.099.084-.243.078-.322-.014l-.08-.092a.17.17 0 0 1-.039-.13.195.195 0 0 1 .069-.126l.213-.181c.036-.03.088-.028.117.005l.045.053c.018.02.006.052-.021.06-.027.007-.039.04-.021.06l.043.05c.011.014.009.033-.005.045-.022.018-.011.053.017.054l.031.001a.041.041 0 0 1 .04.046l-.007.062a.114.114 0 0 1-.04.074zm-1.126-1.547l-.012-.015a.063.063 0 0 1-.009-.068l.008-.018a.092.092 0 0 0-.012-.099l-.038-.044c-.033-.038-.093-.04-.134-.006l-.077.066c-.038.031-.093.005-.088-.042a.05.05 0 0 0-.011-.038l-.02-.023c-.019-.022-.015-.056.009-.075.023-.02.027-.054.008-.075l-.023-.027a.09.09 0 0 0-.11-.019l-.041.022a.158.158 0 0 0-.087.152l.002.03a.175.175 0 0 0 .042.099l.09.104c.005.007.01.015.012.024l.014.064c.009.04.069.04.082-.002a.046.046 0 0 1 .045-.031h.016c.016.001.031.008.041.02l.032.037c.052.06.14.079.219.046l.022-.01a.051.051 0 0 0 .013-.008c.02-.017.023-.046.007-.064zm5.542-6.208c5.678 2.553 7.233 8.207 4.301 14.147-4.43 7.219-13.619 8.627-19.001 6.487-.053-.021-.073-.084-.05-.138 2.396-5.43 2.251-2.379 4.936-8.462 2.1-4.928 4.791-14.293 9.814-12.034zm-5.532 11.333l-.026-.043c-.017-.03-.006-.07.025-.09l.02-.012c.044-.026.098-.015.122.026l.037.062a.07.07 0 0 1 .008.055l-.03.114c-.02.072-.127.063-.124-.01l.004-.088c0-.01-.01-.016-.019-.01a.012.012 0 0 1-.017-.004zm-8.964-7.315c-.034.004-.077-.001-.113-.004a.114.114 0 0 1-.076-.033.082.082 0 0 0-.04-.023l-.238-.066a.12.12 0 0 1-.056-.035.119.119 0 0 0-.057-.034l-.22-.061a.329.329 0 0 1-.08-.034l-.01-.007a.271.271 0 0 0-.103-.035l-.079-.01a.113.113 0 0 1-.09-.064.106.106 0 0 0-.057-.055l-.063-.027a.107.107 0 0 1-.057-.055l-.01-.024a.064.064 0 0 0-.052-.037c-.034-.004-.059-.032-.055-.061l.01-.08a.12.12 0 0 1 .036-.07l.05-.049a.113.113 0 0 1 .095-.029l.008.001a.095.095 0 0 0 .064-.013.095.095 0 0 1 .063-.014l.226.03a.11.11 0 0 1 .067.034.107.107 0 0 0 .047.03l.12.037a.57.57 0 0 1 .176.089l.061.046.261.155c.016.01.03.02.043.034.017.02.03.042.035.066l.008.031c.01.045.034.087.066.124l.011.012c.02.02.034.044.045.07l.007.016a.15.15 0 0 1 .01.078c-.004.03-.018.062-.053.067zm.662-3.882l.398.096c.137.2.203.327.278.606.135.039.212.047.352.046 0 0 .028.179-.017.129-.044-.05-.503-.066-.503-.066a1.833 1.833 0 0 1-.57-.337 1.362 1.362 0 0 1 .062-.474zm3.13.365l-.253-.033a2.179 2.179 0 0 1-.603-.473.641.641 0 0 1 .034-.258l.202.027.033.135c.206.041.31.08.492.152.01.065.026.114.073.229l.044.05-.023.171zm-.526 5.888l-.1-.014c-.084-.01-.144-.077-.134-.148.01-.072.084-.12.168-.11l.1.013c.029.004.049.026.045.05-.003.024.017.046.045.05.028.003.048.025.045.05-.003.023-.029.04-.056.036-.028-.004-.053.012-.056.036-.004.024-.029.04-.057.037zm-.085-1.676l-.1-.013c-.028-.003-.048-.026-.045-.05.003-.023.028-.04.056-.036.028.004.053-.013.056-.036l.017-.13c.006-.047.057-.08.112-.073.056.008.096.052.09.1l-.018.129c-.009.071-.084.12-.168.11zm.13-1.369l.003-.015c.003-.025-.015-.049-.043-.057l-.019-.006c-.095-.028-.151.083-.066.128.01.006.021.009.032.01.047.006.088-.02.094-.06zm.916.053l-.005.04c-.014.101.071.195.19.21l.117.016a.19.19 0 0 0 .128-.027.138.138 0 0 0 .064-.097l.029-.218c.005-.036-.026-.07-.069-.076l-.068-.009c-.026-.003-.046.018-.037.04.01.02-.01.041-.036.038l-.066-.008c-.016-.003-.03.007-.033.021-.003.023-.036.03-.052.011l-.019-.02a.047.047 0 0 0-.059-.008l-.046.03a.081.081 0 0 0-.038.057zm1.873.121l.02.002a.065.065 0 0 0 .059-.022l.01-.012a.095.095 0 0 1 .087-.033l.056.008c.05.006.084.045.079.087l-.01.079c-.006.038.046.064.081.041a.056.056 0 0 1 .038-.008l.03.004c.027.004.052-.013.055-.036.003-.024.029-.04.056-.037l.035.005c.039.005.07.032.075.066l.006.036c.008.051-.023.1-.076.121l-.025.01a.205.205 0 0 1-.103.014l-.134-.018a.066.066 0 0 0-.026.002l-.06.017c-.038.01-.07-.03-.044-.056a.03.03 0 0 0 .001-.044l-.01-.01a.063.063 0 0 0-.038-.02l-.047-.006c-.078-.01-.142-.061-.158-.128l-.004-.019a.032.032 0 0 1-.001-.012c.003-.02.024-.034.048-.031zm1.974-6.266C26.22 7.585 20.785 8.86 17.59 13.264c-3.405 5.933.518 12.678 5.216 15.413a.112.112 0 0 0 .14-.023c3.077-3.835.685-2.486 4.132-6.783 2.834-3.43 8.935-9.077 4.338-11.523zm-6.13 8.361h.05c.034 0 .06-.024.058-.053l-.001-.02c-.002-.039-.042-.07-.088-.07h-.07a.073.073 0 0 0-.049.018l-.076.067c-.048.043.019.11.076.078l.07-.038c.007-.005.018 0 .018.008 0 .006.006.01.013.01z"
      stroke="#000"
    />
  </svg>